<?xml version="1.0" standalone="no"?>
<!DOCTYPE svg PUBLIC "-//W3C//DTD SVG 20010904//EN"
 "http://www.w3.org/TR/2001/REC-SVG-20010904/DTD/svg10.dtd">
<svg version="1.0" xmlns="http://www.w3.org/2000/svg"
 width="779.000000pt" height="108.000000pt" viewBox="0 0 779.000000 108.000000"
 preserveAspectRatio="xMidYMid meet">
<metadata>
Created by potrace 1.16, written by Peter Selinger 2001-2019
</metadata>
<g transform="translate(0.000000,108.000000) scale(0.100000,-0.100000)"
fill="#000000" stroke="none">
<path d="M212 908 c-83 -79 -100 -100 -107 -137 -9 -47 111 -621 133 -639 10
-7 33 -12 52 -10 34 3 37 6 96 123 33 66 79 156 101 200 l41 80 101 -203 101
-202 40 0 c51 0 63 18 85 135 9 50 39 196 66 325 27 129 49 240 49 247 0 21
-80 16 -119 -8 -63 -38 -76 -60 -106 -179 l-22 -85 -62 125 c-70 139 -93 170
-128 170 -43 0 -62 -19 -104 -101 -22 -45 -42 -79 -44 -78 -1 2 -15 63 -30
134 -37 177 -52 187 -143 103z m118 -223 c23 -110 44 -210 47 -222 4 -18 -8
-36 -55 -83 -34 -33 -64 -70 -68 -83 -5 -15 -22 47 -55 203 -26 124 -48 236
-49 248 0 27 118 158 131 145 4 -5 26 -98 49 -208z"/>
<path d="M1200 535 c0 -270 3 -415 10 -415 7 0 10 145 10 415 0 270 -3 415
-10 415 -7 0 -10 -145 -10 -415z"/>
<path d="M1535 838 c4 -13 65 -220 135 -463 l37 -130 89 -3 89 -3 49 187 c28
103 51 183 52 178 3 -10 56 -195 86 -297 l20 -67 84 0 83 0 17 58 c9 31 48
163 85 292 38 129 69 241 69 248 0 8 -21 12 -73 12 l-73 0 -54 -201 c-30 -111
-56 -197 -58 -191 -2 6 -22 82 -45 169 l-42 158 -92 3 c-81 2 -92 1 -97 -15
-3 -10 -23 -85 -45 -167 -22 -81 -42 -150 -44 -153 -3 -2 -8 12 -11 32 -4 19
-26 108 -50 198 l-43 162 -87 3 c-66 2 -85 0 -81 -10z"/>
<path d="M2490 545 l0 -305 225 0 225 0 0 70 0 70 -150 0 -150 0 0 50 0 50
110 0 110 0 0 65 0 65 -110 0 -110 0 0 50 0 50 150 0 150 0 0 70 0 70 -225 0
-225 0 0 -305z"/>
<path d="M3020 545 l0 -305 75 0 75 0 0 115 0 115 115 0 115 0 0 -115 0 -115
75 0 75 0 0 305 0 305 -75 0 -75 0 0 -115 0 -115 -115 0 -115 0 0 115 0 115
-75 0 -75 0 0 -305z"/>
<path d="M3834 821 c9 -16 54 -91 102 -167 47 -76 90 -147 96 -157 5 -11 9
-73 9 -138 l-2 -119 81 0 80 0 0 120 0 120 110 180 c61 98 110 181 110 184 0
3 -36 6 -79 6 l-79 0 -64 -111 c-35 -61 -68 -111 -73 -111 -5 0 -36 50 -69
111 l-61 110 -88 1 -88 0 15 -29z"/>
<path d="M4470 652 c0 -230 10 -280 68 -344 51 -57 108 -80 197 -80 126 0 212
56 250 162 11 33 15 92 15 251 l0 209 -75 0 -75 0 0 -206 0 -206 -35 -35 c-33
-33 -39 -35 -85 -31 -95 9 -110 50 -110 308 l0 170 -75 0 -75 0 0 -198z"/>
<path d="M5090 545 l0 -305 75 0 75 0 0 115 0 115 115 0 115 0 0 -115 0 -115
75 0 75 0 0 305 0 305 -75 0 -75 0 0 -115 0 -115 -115 0 -115 0 0 115 0 115
-75 0 -75 0 0 -305z"/>
<path d="M5930 545 l0 -307 183 4 c166 3 186 5 229 26 58 29 112 83 141 142
31 63 31 195 1 261 -29 61 -85 116 -153 148 -52 24 -68 26 -228 29 l-173 4 0
-307z m336 142 c120 -62 120 -234 0 -291 -22 -10 -61 -16 -110 -16 l-76 0 0
166 0 167 78 -6 c44 -2 92 -12 108 -20z"/>
<path d="M6580 545 l0 -305 225 0 225 0 0 70 0 70 -150 0 -150 0 0 50 0 50
110 0 110 0 0 65 0 64 -107 3 -108 3 -3 48 -3 47 150 0 151 0 0 70 0 70 -225
0 -225 0 0 -305z"/>
<path d="M7110 545 l0 -305 75 0 75 0 0 115 0 115 109 0 109 0 7 -27 c3 -14 6
-58 5 -97 -1 -39 -1 -79 -1 -88 1 -16 12 -18 76 -18 l75 0 0 305 0 305 -77 0
-78 0 0 -113 0 -112 -112 -3 -113 -3 0 116 0 115 -75 0 -75 0 0 -305z"/>
</g>
</svg>
