<?xml version="1.0" standalone="no"?>
<!DOCTYPE svg PUBLIC "-//W3C//DTD SVG 20010904//EN"
 "http://www.w3.org/TR/2001/REC-SVG-20010904/DTD/svg10.dtd">
<svg version="1.0" xmlns="http://www.w3.org/2000/svg"
 width="595.000000pt" height="264.000000pt" viewBox="0 0 595.000000 264.000000"
 preserveAspectRatio="xMidYMid meet">
<metadata>
Created by potrace 1.16, written by Peter Selinger 2001-2019
</metadata>
<g transform="translate(0.000000,264.000000) scale(0.100000,-0.100000)"
fill="#000000" stroke="none">
<path d="M2302 2263 c-131 -123 -155 -161 -154 -248 1 -34 43 -257 100 -524
111 -524 106 -511 191 -511 38 0 56 5 71 20 11 11 92 165 181 342 l161 323
160 -320 c88 -176 169 -330 181 -342 36 -40 132 -29 157 17 5 10 51 216 100
457 50 241 102 491 115 556 36 168 38 159 -37 151 -84 -9 -138 -34 -197 -89
-63 -59 -73 -81 -111 -245 -18 -74 -35 -138 -39 -143 -4 -4 -55 91 -114 210
-59 120 -113 225 -120 234 -34 44 -126 54 -171 18 -16 -13 -54 -76 -93 -156
-36 -74 -67 -133 -68 -131 -2 2 -24 102 -50 223 -25 121 -53 230 -61 243 -11
16 -24 22 -52 22 -33 0 -49 -11 -150 -107z m228 -360 c39 -183 70 -350 70
-371 0 -35 -7 -45 -90 -124 -56 -53 -97 -101 -109 -128 -18 -41 -20 -42 -25
-20 -6 26 -99 468 -137 652 -31 149 -27 159 104 284 l102 97 8 -29 c4 -16 39
-179 77 -361z"/>
<path d="M770 808 c1 -7 27 -103 59 -213 l58 -200 61 -3 61 -3 10 38 c6 21 21
79 34 128 l24 90 21 -70 c11 -38 28 -96 37 -127 l16 -58 54 0 c42 0 56 4 64
18 5 9 32 98 60 197 29 99 54 188 57 198 5 15 -2 17 -49 17 l-54 0 -34 -130
c-19 -71 -36 -130 -39 -130 -3 0 -18 50 -34 110 l-29 110 -63 0 -63 0 -16 -57
c-9 -32 -24 -84 -33 -117 l-17 -58 -35 136 -34 136 -58 0 c-40 0 -58 -4 -58
-12z"/>
<path d="M1430 605 l0 -215 155 0 155 0 0 50 0 49 -102 3 -103 3 -3 33 -3 32
75 0 76 0 0 45 0 44 -72 3 -73 3 -3 33 -3 32 105 0 106 0 0 50 0 50 -155 0
-155 0 0 -215z"/>
<path d="M1792 608 l3 -213 50 0 50 0 3 83 3 82 74 0 74 0 3 -82 3 -83 53 -3
52 -3 0 215 0 216 -55 0 -55 0 0 -80 0 -80 -75 0 -75 0 0 80 0 80 -55 0 -55 0
2 -212z"/>
<path d="M2343 813 c2 -5 38 -65 80 -134 l77 -126 0 -81 0 -82 50 0 50 0 0 83
0 82 75 122 c41 67 75 126 75 132 0 7 -21 11 -52 11 l-53 0 -45 -80 c-51 -91
-46 -92 -102 16 l-33 64 -63 0 c-35 0 -61 -3 -59 -7z"/>
<path d="M2792 663 c4 -176 11 -203 70 -245 49 -34 158 -37 212 -6 71 41 81
70 84 251 l4 158 -54 -3 -53 -3 -5 -147 c-4 -132 -7 -149 -25 -162 -29 -22
-81 -20 -105 4 -18 18 -20 33 -20 165 l0 145 -56 0 -56 0 4 -157z"/>
<path d="M3220 605 l0 -215 50 0 50 0 0 85 0 85 80 0 80 0 0 -85 0 -85 50 0
50 0 0 215 0 215 -50 0 -50 0 0 -80 0 -80 -80 0 -80 0 0 80 0 80 -50 0 -50 0
0 -215z"/>
<path d="M3792 609 l3 -214 89 -3 c211 -7 310 61 310 213 1 80 -31 138 -98
180 -47 29 -55 30 -178 34 l-128 3 2 -213z m231 95 c58 -28 82 -91 55 -148
-17 -38 -50 -56 -118 -63 l-60 -6 0 117 0 116 45 0 c24 0 60 -7 78 -16z"/>
<path d="M4240 605 l0 -215 155 0 155 0 0 53 0 52 -97 0 -98 0 -3 33 -3 32 75
0 76 0 0 45 0 44 -72 3 -73 3 -3 33 -3 32 100 0 101 0 0 50 0 50 -155 0 -155
0 0 -215z"/>
<path d="M4610 605 l0 -215 50 0 50 0 0 85 0 85 80 0 80 0 0 -85 0 -85 50 0
50 0 0 215 0 215 -50 0 -49 0 -3 -77 -3 -78 -75 0 -75 0 -3 78 -3 77 -49 0
-50 0 0 -215z"/>
</g>
</svg>
