<svg viewBox="-28.819999999999972 -25.63076923076923 1131.8399999999997 692.0307692307691" fill="none" xmlns="http://www.w3.org/2000/svg" xmlns:xlink="http://www.w3.org/1999/xlink" overflow="visible" width="1047.9999999999998px" height="640.7692307692307px"><rect id="Blush Background Color" fill="#ecffb0" x="-28.819999999999972" y="-25.63076923076923" width="1131.8399999999997" height="692.0307692307691"/><g id="Master/Scene/2 Characters"><g id="Background" transform="scale(1 1)"><g id="Background/Plants"><g id="Background Shape 2" opacity="0.504511"><path id="Background Shape" fill-rule="evenodd" clip-rule="evenodd" d="M974.805 490.795C987.883 559.536 670.715 604.372 397.721 573.082C124.728 541.791 -0.508907 419.598 129.759 354.489C260.027 289.38 961.726 422.055 974.805 490.795Z" fill="#F2F2F2"/></g><path id="Leaf Bottom" fill-rule="evenodd" clip-rule="evenodd" d="M722.465 204.353C725.933 201.702 731.313 203.391 734.803 204.956C736.148 205.559 739.586 207.489 742.135 209.661C741.798 208.156 741.498 206.637 741.235 205.106C740.157 198.811 739.414 192.396 739.057 186.019C738.964 184.355 739.085 182.497 739.208 180.614L739.208 180.611C739.249 179.974 739.291 179.334 739.325 178.698C739.185 178.548 739.091 178.34 739.051 178.059C739.037 178.176 739.028 178.269 739.022 178.341C739.011 178.457 739.006 178.515 738.988 178.519C738.969 178.524 738.937 178.475 738.873 178.376C738.848 178.338 738.818 178.292 738.782 178.239C736.202 174.38 734.036 170.03 733.738 165.249C733.486 161.195 736.816 153.523 741.537 158.834C743.649 161.206 743.1 177.864 739.928 178.884C740.776 184.404 741.841 189.915 743.176 195.355C743.376 195.32 743.58 195.317 743.781 195.344C743.762 193.992 743.76 192.516 743.816 192.008C744.291 187.636 747.941 178.76 753.753 180.483C758.218 181.808 755.481 187.26 753.962 189.646C751.515 193.488 748.748 195.151 745.243 197.149C745.173 197.975 744.641 198.455 744.013 198.611C746.359 207.397 749.443 215.966 753.477 224.061L753.585 223.546L753.585 223.546C754.097 221.089 754.694 218.225 755.072 217.623C757.05 214.474 761.427 210.628 765.464 212.491C773.942 216.41 764.74 227.672 757.522 228.897C757.222 229.312 756.904 229.646 756.567 229.837C757.969 232.28 759.468 234.673 761.072 237.004C763.477 240.51 766.062 244.004 768.772 247.479C768.856 244.761 769.928 238.704 770.232 238.053C772.083 234.101 777.418 230.034 781.746 232.842C786.613 236.008 782.2 241.989 779.423 244.696C778.285 245.806 772.657 249.874 770.672 249.892C777.219 258.085 784.446 266.137 791.794 273.899C791.185 270.424 790.39 260.856 790.479 259.794C790.935 254.312 794.536 245.544 801.629 247.681C808.51 249.75 805.466 258.858 803.11 263.2C801.684 265.828 799.711 268.498 797.331 270.331C796.903 270.661 796.343 270.931 795.783 271.2C795.109 271.524 794.436 271.848 793.997 272.277C793.605 272.659 793.485 273.098 793.365 273.533C793.239 273.992 793.115 274.447 792.672 274.828C796.643 279.004 800.642 283.093 804.583 287.069C806.443 288.945 808.337 290.785 810.249 292.602C811.295 292.168 812.787 292.739 812.709 294.222C812.698 294.437 812.648 294.623 812.581 294.793C814.03 296.142 815.488 297.482 816.958 298.807C816.925 298.421 816.934 297.876 817.002 297.125C815.944 298.631 815.988 296.437 816.022 294.764C816.034 294.173 816.044 293.648 816.004 293.373C815.849 292.298 815.648 291.234 815.447 290.171C815.018 287.901 814.59 285.639 814.611 283.296C814.658 278.323 817.805 269.987 824.427 272.949C830.516 275.666 828.301 283.036 826.004 287.657C824.549 290.581 822.56 293.192 820.48 295.691C820.109 296.137 819.697 296.741 819.29 297.34C818.685 298.228 818.089 299.102 817.648 299.428C823.302 304.5 829.089 309.423 834.876 314.346L834.879 314.349C837.47 316.553 840.062 318.758 842.641 320.976C842.754 320.489 842.847 320.006 842.927 319.555C842.765 319.737 842.546 319.822 842.264 319.805C842.189 319.432 842.08 318.936 841.95 318.34C840.356 311.068 835.502 288.917 848.645 293.21C858.274 296.364 851.477 315.652 844.295 322.399C848.654 326.166 852.971 329.982 857.187 333.911C860.237 336.754 863.198 339.694 866.046 342.733C864.572 338.798 863.183 333.705 864.095 329.652C865.422 323.753 871.639 318.184 877.709 321.54C885.277 325.742 879.455 331.482 873.996 336.864C871.208 339.612 868.515 342.267 867.747 344.576C876.8 354.543 884.529 365.616 889.693 378.229C895.31 391.946 900.524 410.377 897.64 425.723C898.173 418.975 895.895 410.503 894.296 404.552C894.079 403.742 893.873 402.979 893.69 402.273C891.287 393.044 887.873 384.065 883.375 375.661C876.169 362.2 866.651 350.774 855.663 340.4C853.161 341.273 850.443 342.889 848.192 344.227C846.812 345.048 845.607 345.765 844.735 346.141C840.531 347.957 832.459 350.56 829.78 344.84C827.146 339.216 833.869 336.07 838.035 334.809C842.061 333.593 845.69 333.74 849.446 334.737C843.63 329.574 837.672 324.575 831.715 319.577L831.714 319.576C830.618 318.656 829.523 317.737 828.428 316.817C826.914 318.06 825.242 319.857 823.466 321.765C817.83 327.82 811.153 334.994 805.19 329.133C796.191 320.288 813.402 311.298 820.735 312C821.635 312.086 822.506 312.276 823.355 312.534C815.877 306.179 808.515 299.692 801.552 292.749C800.303 292.978 798.314 294.818 795.924 297.03C790.554 302 783.161 308.842 777.592 303.455C773.572 299.566 774.949 293.509 778.835 290.046C782.735 286.568 788.391 286.574 793.198 287.745C795.276 288.249 797.193 289.211 798.98 290.383C799.056 290.387 799.129 290.391 799.202 290.395C792.351 283.491 785.457 276.432 778.818 269.132C778.702 269.169 778.583 269.208 778.464 269.247C778.063 269.739 777.391 269.919 776.775 269.81C776.436 269.927 776.089 270.047 775.735 270.169C770.476 271.986 763.717 274.322 758.475 273.315C754.618 272.573 751.117 269.433 754.383 265.567C757.038 262.423 764.24 262.874 767.753 263.619C769.467 263.983 771.333 265.037 773.206 266.095C773.992 266.539 774.78 266.984 775.558 267.379C775.76 266.971 776.113 266.709 776.514 266.583C769.958 259.247 763.702 251.658 758.028 243.739C756.311 244.005 754.406 244.761 752.441 245.54C747.714 247.415 742.64 249.427 738.999 245.093C733.624 238.695 743.733 234.96 748.539 235.568C750.162 235.773 751.762 236.233 753.307 236.842C749.178 230.322 746.025 223.353 743.809 216.033C743.788 216.044 743.768 216.055 743.748 216.066L743.748 216.067C743.717 216.084 743.686 216.102 743.647 216.119C743.68 216.1 743.71 216.082 743.739 216.063L743.739 216.063L743.739 216.063C743.761 216.049 743.783 216.035 743.806 216.021C743.585 215.289 743.372 214.554 743.17 213.815C742.795 213.606 742.444 213.452 742.276 213.389C744.46 214.896 735.248 215.634 733.523 215.772C729.709 216.077 724.599 216.191 721.801 213.062C719.451 210.434 719.589 206.552 722.465 204.353ZM898.05 425.745C897.888 427.968 897.486 430.005 896.737 431.684C897.299 429.772 897.73 427.785 898.05 425.745Z" fill="#F2F2F2"/><path id="Leaf Top" opacity="0.2" fill-rule="evenodd" clip-rule="evenodd" d="M236.297 62.3297C233.766 60.4142 229.838 61.6378 227.288 62.7705C226.306 63.2074 223.796 64.6041 221.933 66.1756C222.18 65.0868 222.4 63.9886 222.592 62.8814C223.382 58.3289 223.927 53.6902 224.19 49.0786C224.258 47.8758 224.17 46.532 224.082 45.1706L224.081 45.1695C224.051 44.7086 224.021 44.2457 223.997 43.7855C224.099 43.6767 224.168 43.5264 224.197 43.3229C224.207 43.4073 224.213 43.475 224.218 43.5267C224.226 43.6105 224.229 43.6525 224.243 43.6559C224.256 43.6594 224.28 43.6238 224.327 43.5524C224.345 43.5247 224.367 43.4916 224.393 43.4533C226.278 40.6614 227.862 37.5157 228.081 34.0585C228.266 31.1264 225.838 25.5801 222.389 29.4222C220.846 31.1381 221.24 43.1832 223.556 43.9203C222.935 47.9119 222.155 51.897 221.179 55.8315C221.033 55.806 220.884 55.8038 220.737 55.8238C220.751 54.8458 220.753 53.7785 220.713 53.4115C220.367 50.2503 217.705 43.8333 213.462 45.0816C210.201 46.041 212.197 49.9822 213.306 51.7071C215.091 54.4842 217.11 55.6861 219.668 57.1295C219.719 57.7264 220.108 58.0733 220.566 58.1859C218.85 64.54 216.596 70.7376 213.647 76.5921L213.569 76.2201C213.195 74.4437 212.76 72.3726 212.484 71.9377C211.042 69.6615 207.847 66.882 204.899 68.2308C198.707 71.0673 205.422 79.2075 210.692 80.0906C210.911 80.3905 211.142 80.6317 211.389 80.7699C210.364 82.5372 209.269 84.2678 208.097 85.9538C206.339 88.4899 204.451 91.0178 202.471 93.531C202.411 91.5659 201.63 87.1865 201.408 86.7161C200.058 83.859 196.165 80.9205 193.004 82.9523C189.449 85.243 192.669 89.5667 194.695 91.5232C195.525 92.3253 199.633 95.2644 201.083 95.2769C196.299 101.204 191.019 107.029 185.652 112.644C186.097 110.131 186.681 103.212 186.617 102.444C186.286 98.4805 183.66 92.1419 178.481 93.6893C173.455 95.1883 175.675 101.773 177.393 104.912C178.434 106.812 179.873 108.742 181.61 110.066C181.923 110.305 182.332 110.499 182.74 110.694C183.232 110.928 183.723 111.162 184.044 111.472C184.33 111.748 184.418 112.065 184.504 112.38C184.596 112.712 184.687 113.041 185.01 113.316C182.109 116.337 179.188 119.296 176.309 122.172C174.95 123.529 173.567 124.861 172.17 126.175C171.406 125.862 170.317 126.275 170.373 127.347C170.381 127.503 170.418 127.637 170.467 127.76C169.408 128.736 168.343 129.705 167.269 130.664C167.294 130.385 167.287 129.991 167.238 129.448C168.01 130.537 167.978 128.95 167.954 127.741C167.946 127.313 167.938 126.933 167.967 126.735C168.081 125.957 168.229 125.188 168.376 124.419C168.69 122.778 169.003 121.141 168.988 119.447C168.956 115.852 166.662 109.825 161.825 111.969C157.378 113.936 158.993 119.265 160.669 122.605C161.729 124.719 163.181 126.606 164.699 128.413C164.97 128.735 165.27 129.172 165.567 129.604C166.008 130.246 166.443 130.878 166.765 131.114C162.635 134.783 158.409 138.345 154.182 141.907L154.181 141.907L154.18 141.908C152.286 143.504 150.393 145.099 148.509 146.704C148.427 146.352 148.359 146.003 148.301 145.676C148.419 145.808 148.579 145.87 148.785 145.858C148.84 145.588 148.919 145.229 149.015 144.798C150.181 139.539 153.733 123.519 144.136 126.629C137.104 128.913 142.059 142.858 147.3 147.734C144.117 150.459 140.963 153.22 137.884 156.063C135.655 158.119 133.493 160.247 131.412 162.445C132.49 159.599 133.505 155.916 132.841 152.985C131.875 148.721 127.337 144.696 122.904 147.125C117.377 150.167 121.626 154.314 125.61 158.204C127.644 160.19 129.609 162.109 130.169 163.779C123.556 170.989 117.908 178.999 114.133 188.121C110.027 198.042 106.213 211.371 108.313 222.467C107.927 217.588 109.593 211.46 110.762 207.157C110.922 206.571 111.072 206.019 111.206 205.508C112.964 198.834 115.46 192.34 118.747 186.262C124.013 176.526 130.967 168.26 138.994 160.754C140.82 161.384 142.804 162.552 144.447 163.519C145.455 164.112 146.334 164.63 146.97 164.902C150.04 166.214 155.933 168.093 157.89 163.956C159.815 159.887 154.908 157.615 151.867 156.705C148.928 155.827 146.278 155.935 143.535 156.657C147.784 152.922 152.136 149.304 156.487 145.688C157.288 145.023 158.088 144.358 158.888 143.692C159.993 144.59 161.213 145.889 162.509 147.268C166.622 151.644 171.494 156.829 175.85 152.588C182.424 146.189 169.861 139.695 164.507 140.206C163.849 140.268 163.213 140.406 162.593 140.593C168.056 135.994 173.433 131.301 178.52 126.278C179.432 126.443 180.884 127.773 182.628 129.371L182.628 129.371C186.547 132.963 191.942 137.908 196.01 134.01C198.946 131.197 197.944 126.818 195.108 124.315C192.261 121.801 188.132 121.808 184.621 122.657C183.104 123.022 181.704 123.718 180.399 124.566C180.343 124.569 180.29 124.572 180.237 124.575C185.242 119.58 190.277 114.473 195.128 109.192C195.212 109.219 195.299 109.247 195.386 109.275C195.679 109.631 196.17 109.761 196.619 109.682C196.865 109.765 197.116 109.851 197.372 109.939L197.378 109.941C201.217 111.253 206.152 112.94 209.979 112.209C212.796 111.672 215.353 109.4 212.97 106.605C211.033 104.333 205.774 104.662 203.209 105.202C201.957 105.466 200.594 106.229 199.227 106.994C198.652 107.316 198.077 107.638 197.509 107.924C197.361 107.629 197.104 107.439 196.811 107.348C201.6 102.041 206.171 96.5514 210.317 90.823C211.571 91.015 212.961 91.5605 214.395 92.1231C217.846 93.477 221.55 94.93 224.21 91.7953C228.137 87.1664 220.757 84.4696 217.248 84.9109C216.063 85.0597 214.895 85.3933 213.766 85.8337C216.784 81.1177 219.088 76.0773 220.709 70.784C220.724 70.7918 220.739 70.7999 220.753 70.8079C220.776 70.8206 220.799 70.8333 220.827 70.8454C220.803 70.8324 220.781 70.8187 220.76 70.8051C220.744 70.795 220.728 70.785 220.711 70.7752C220.873 70.2457 221.028 69.7137 221.176 69.1798C221.45 69.0284 221.706 68.9169 221.829 68.871C220.234 69.9618 226.96 70.4918 228.219 70.591C231.004 70.81 234.734 70.8905 236.779 68.6272C238.495 66.7261 238.397 63.9187 236.297 62.3297ZM107.896 222.029C108.019 223.511 108.385 224.863 109.104 225.971C108.576 224.705 108.18 223.386 107.896 222.029Z" fill="#C1DEE2"/><g id="Plant Right" opacity="0.7"><path id="Leaf Me Alone!" fill-rule="evenodd" clip-rule="evenodd" d="M822.822 323.77C836.474 323.062 853.359 331.031 854.815 345.871C855.873 356.653 855.546 367.405 857.183 378.172C858.492 386.776 861.261 395.036 865.038 402.874C868.67 410.411 876.203 416.827 878.162 424.879C879.411 430.01 878.712 437.227 876.99 442.245C874.896 448.347 876.009 447.865 880.182 452.985C888.359 463.018 895.723 473.307 900.93 485.29C908.43 502.55 913.348 522.725 910.564 541.618C910.21 544.017 909.79 552.627 906.486 553.229C902.796 553.902 904.522 548.978 904.719 547.387C905.974 537.238 907.09 528.367 905.575 518.059C899.732 478.288 871.201 452.085 852.623 418.331C851.602 416.59 849.446 412.445 847.947 409.711C845.58 405.393 843.201 397.179 839.997 393.977C833.963 387.947 839.511 400.071 840.686 402.385C842.173 405.313 843.808 408.425 845.332 410.99C852.302 422.882 860.082 435.862 867.28 448.121C836.147 455.214 814.221 417.785 805.866 393.178C798.982 372.905 790.746 325.505 822.822 323.77" fill="#56919C"/><path id="Leaf Me Alone!_2" fill-rule="evenodd" clip-rule="evenodd" d="M1005.81 286.121C982.983 287.932 968.331 302.992 961.511 324.056C957.835 335.407 957.413 347.068 955.37 358.734C952.298 376.284 945.686 389.585 932.764 402.089C928.762 405.961 925.812 409.937 923.716 414.191C919.554 418.438 915.931 423.244 913.269 429.12C909.869 436.624 908.907 445.628 912.832 453.109C913.888 455.121 916.521 459.158 919.25 460.992C909.033 482.752 903.415 506.584 904.048 530.386C904.431 544.753 905.132 559.127 905.951 573.477C906.171 577.33 907.426 583.693 909.31 577.231C911.035 571.32 908.872 562.041 908.672 555.867C907.698 525.786 906.866 498.435 919.248 470.331C920.547 467.385 921.924 464.463 923.357 461.565C923.442 461.516 923.52 461.457 923.599 461.4C923.653 461.442 923.703 461.487 923.758 461.529C923.849 461.365 923.975 461.171 924.121 460.954C924.532 460.529 924.891 459.993 925.233 459.395C926.331 457.873 927.574 456.084 927.581 455.105C927.581 455.098 927.577 455.086 927.577 455.078C935.242 442.565 944.022 430.742 952.99 419.149C952.923 419.234 962.718 405.897 961.204 413.272C960.474 416.827 953.269 423.595 950.359 427.36C943.922 435.735 936.363 446.348 930.082 456.61C929.237 457.096 928.043 459.48 927.179 461.257C926.702 462.157 926.257 463.064 925.82 463.855C948.077 471.208 965.39 456.396 977.196 439.168C977.21 439.147 977.223 439.126 977.236 439.106C980.829 434.346 984.509 429.619 989.107 425.856C996.777 419.576 1004.99 418.468 1014.04 415.378C1038.7 406.951 1049.19 374.987 1052.52 351.27C1056.27 324.513 1037.89 283.483 1005.81 286.121" fill="#89C5CC"/><path id="Leaf Me Alone!_3" fill-rule="evenodd" clip-rule="evenodd" d="M960.723 211.191C937.299 235.569 925.982 269.383 917.022 301.172C907.014 336.676 900.403 372.728 900.149 409.642C899.983 433.895 899.323 458.299 900.739 482.523C901.241 491.126 902.099 499.745 903.462 508.255C903.575 508.955 906.626 527.958 909.545 523.53C911.205 521.012 906.417 503.817 906.056 500.953C904.021 484.822 903.548 468.573 903.647 452.326C903.81 425.575 903.022 398.962 905.733 372.31C906.137 368.33 906.457 364.151 907.402 360.258C908.406 356.119 907.127 357.926 910.396 356.287C913.573 354.695 917.498 354.922 920.794 352.924C933.866 344.997 940.553 324.635 945.758 311.275C951.711 295.998 955.329 279.706 958.219 263.628C960.341 251.816 961.858 240.075 962.716 228.11C962.987 224.339 963.003 220.396 963.744 216.688C963.944 215.688 964.945 213.919 964.909 213.033C964.832 211.158 963.701 210.056 963.608 208.481C962.627 209.363 961.665 210.267 960.723 211.191" fill="#89C5CC"/><ellipse id="Base" cx="906" cy="572.5" rx="73" ry="36.5" fill="#89C5CC"/><path id="Leaf Me Alone!_4" fill-rule="evenodd" clip-rule="evenodd" d="M956.028 472.085C974.095 470.753 994.271 485.329 1002.99 500.497C1010.01 512.726 1008.83 528.785 1004.49 541.778C1001.58 550.476 995.241 562.878 984.665 562.999C971.433 563.15 970.795 546.796 970.539 537.236C970.199 524.525 968.593 513.453 958.577 504.789C957.341 503.72 956.043 502.719 954.746 501.718C953.594 500.829 952.443 499.941 951.334 499.005C951.157 498.855 950.978 498.706 950.8 498.556C947.258 495.579 943.539 492.453 943.086 487.546C942.43 480.436 946.443 479.156 952.571 480.477C952.769 480.52 953.306 480.723 954.036 481C957.166 482.186 963.844 484.718 962.581 481.692C962.105 480.552 960.368 479.648 958.175 478.971C952.501 478.354 945.733 477.638 943.787 478.066C922.792 482.672 914.617 511.755 912.446 530.233C912.212 532.227 912.023 534.228 911.857 536.232H908C908.268 531.393 908.621 526.562 909.43 521.776C912.525 503.473 922.2 476.591 943.42 473.62C944.203 473.51 947.083 473.491 950.571 473.696C952.224 472.772 954.076 472.213 956.028 472.085Z" fill="#56919C"/></g><g id="Plant Left" opacity="0.5"><path id="Leaf" fill-rule="evenodd" clip-rule="evenodd" d="M200.223 190.445C204.425 184.453 212.224 169.235 218.138 167.094C221.948 165.715 220.837 179.98 220.884 182.7C221.067 193.224 220.043 203.681 218.778 214.116C216.498 232.937 209.045 249.697 198.822 265.715C193.562 273.957 187.391 282.3 178.845 287.442C174.912 289.811 170.179 290.207 166.294 292.248C161.769 294.623 164.233 292.703 162.194 297.417C159.363 303.963 158.457 312.408 157.147 319.392C151.132 351.455 136.568 520.945 139.093 553.558C139.317 556.449 135.287 557.14 135.085 553.611C134.016 534.9 143.27 405.322 147.94 362.947C152.609 320.571 157.334 283.135 162.071 268.474C167.819 250.687 178.199 229.298 186.84 212.711C190.854 205.006 195.229 197.565 200.223 190.445Z" fill="#56919C"/><path id="Leaf_2" fill-rule="evenodd" clip-rule="evenodd" d="M231.414 398.278C242.349 390.25 254.186 405.401 244.29 413.43C238.82 417.868 233.101 416.29 229.882 412.591C227.792 415.139 225.836 417.803 223.956 420.052C218.229 426.909 212.817 433.928 207.644 441.111C196.898 456.035 187.689 471.801 178.06 487.278C168.558 502.554 159.132 517.908 150.519 533.571C143.223 546.841 133.498 562.452 131 577C134.79 546.146 149.172 516.49 166.298 489.291C183.285 462.314 202.779 432.853 229.081 411.564C226.404 407.627 226.33 402.008 231.414 398.278Z" fill="#C1DEE2"/><path id="Leaf_3" fill-rule="evenodd" clip-rule="evenodd" d="M23.9132 323.031C30.0324 324.227 40.0312 338.07 45.0753 343.344C51.0699 349.612 56.5084 356.292 61.6349 363.292C72.6711 378.358 82.5411 394.376 90.9339 411.08C104.616 438.311 115.578 466.265 123.533 495.918C128.403 514.069 131.556 532.883 133.424 551.565C133.777 555.089 137.471 582.253 132.148 582.985C127.361 583.644 128.84 562.359 128.609 559.463C125.998 526.798 118.177 495.015 107.299 464.226C104.929 457.519 102.728 449.304 98.9381 443.268C96.2092 438.921 98.9186 440.437 94.1228 438.792C90.0049 437.378 85.3131 437.724 81.0963 435.993C71.9356 432.237 64.6006 424.944 58.1709 417.608C45.6758 403.351 35.774 387.928 30.6126 369.66C27.7495 359.532 25.1184 349.344 23.6583 338.902C23.2806 336.203 19.9718 322.26 23.9132 323.031Z" fill="#56919C"/><path id="Leaf_4" fill-rule="evenodd" clip-rule="evenodd" d="M48.0614 92.716C71.1113 132.69 90.0528 176.601 102.283 221.076C109.694 248.023 114.876 275.675 120.025 303.126C127.997 345.632 135.538 388.134 137.683 431.395C139.841 474.906 144.108 525.092 129.861 567C136.978 524.452 130.202 479.162 129.002 436.35C128.429 415.912 126.768 395.674 124.588 375.355C122.473 355.645 119.018 336.029 115.801 316.474C114.234 306.95 112.588 297.441 110.912 287.937C110.411 285.101 110.2 276.687 108.401 274.75C106.591 272.8 97.3543 272.005 94.4544 270.574C88.6149 267.693 83.1221 263.6 78.2609 259.275C68.9418 250.984 60.8347 240.151 54.4359 229.472C39.6307 204.764 33.7116 174.61 34.0108 145.994C34.0682 140.438 43.0034 80.61 39.4149 79.7861C39.631 79.533 39.8353 79.2718 40.028 79C42.7448 83.5488 45.4108 88.1284 48.0614 92.716Z" fill="#89C5CC"/><path id="Leaf_5" fill-rule="evenodd" clip-rule="evenodd" d="M296.846 236.887C297.202 236.374 299.517 232.807 298.351 233.035C300.724 232.57 295.087 236.969 301 234.27C298.192 236.922 299.813 240.366 299.85 243.935C299.911 249.73 298.942 255.476 297.851 261.146C296.126 270.109 293.557 278.823 289.828 287.159C281.701 305.326 267.901 322.814 251.518 334.172C243.43 339.779 235.504 341.689 226.28 344.27C220.453 345.901 219.991 348.915 216.898 354.569C210.46 366.345 204.136 378.078 198.457 390.251C191.677 404.788 185.095 419.34 178.886 434.132C157.969 483.957 140.945 535.578 132.005 589C131.786 557.519 139.069 525.095 148.255 495.088C154.947 473.226 163.658 452.151 172.95 431.29C175.201 426.236 178.613 419.735 179.57 414.155C180.239 410.245 178.192 406.486 177.255 402.367C173.601 386.33 173.863 368.363 177.071 352.24C180.609 334.461 190.839 326.209 208.145 323.691C214.474 322.769 222.519 323.107 228.322 320.408C234.645 317.47 237.253 307.81 240.849 301.61C250.506 284.953 261.98 268.979 275.155 254.945C278.803 251.059 282.726 247.473 286.888 244.15C289.513 242.053 295.058 239.47 296.846 236.887Z" fill="#89C5CC"/><path id="Base_2" fill-rule="evenodd" clip-rule="evenodd" d="M97.845 560.729C97.3997 557.71 99.7396 555 102.791 555H164.209C167.26 555 169.6 557.71 169.155 560.729L164.408 592.918C162.961 602.73 154.541 610 144.622 610H122.378C112.459 610 104.039 602.73 102.592 592.918L97.845 560.729Z" fill="#C1DEE2"/></g><g id="Maceta"><ellipse id="Base_3" cx="71.6456" cy="590.728" rx="24.2278" ry="19.2722" fill="#F2F2F2"/><path id="Fill 27" fill-rule="evenodd" clip-rule="evenodd" d="M78.3534 558.174C77.5269 559.603 76.79 561.061 76.139 562.54C76.116 559.493 76.2845 556.424 76.7446 553.313C77.531 547.983 78.7322 542.682 79.8609 537.388C80.6721 533.584 80.6208 526.752 83.6994 523.72C84.5436 523.065 84.7468 524.351 84.7468 524.908C84.7575 525.026 84.7445 522.632 83.9251 523.049C79.0544 525.564 77.4763 533.474 75.9169 537.434C73.6418 543.215 71.7061 549.124 70.909 555.138C70.7076 556.657 70.598 558.176 70.5727 559.692C70.4071 559.287 70.2516 558.878 70.0796 558.474C67.2684 551.881 63.4747 545.447 58.7431 539.514C57.5784 538.054 42.9342 523.649 41.7878 525.854C41.9009 526.174 42.1377 526.44 42.4988 526.651C42.52 526.675 42.5206 526.662 42.5083 526.626C43.3683 528.016 45.8137 530.161 46.5754 531.379C48.4923 534.442 49.9821 537.693 51.4961 540.882C54.6948 547.622 57.6621 554.429 60.5386 561.25C61.2084 562.839 61.9065 564.419 62.6187 565.994C55.2769 555.405 45.4826 545.791 32 540.287C36.6049 542.63 39.624 547.037 42.7339 550.412C46.4846 554.483 50.4351 558.444 54.1929 562.51C58.6253 567.307 63.8405 572.358 68.1038 577.666C72.2333 586.336 76.2462 595.015 78.7234 604.128C77.7084 600.98 78.6438 596.628 78.4701 593.324C78.3322 590.693 78.0247 588.084 77.6035 585.48C78.1243 586.655 78.5731 587.83 78.7764 588.924C78.5908 587.09 78.377 585.268 78.1472 583.455C78.7369 581.758 79.316 580.175 79.7072 578.87C81.7118 572.179 84.0988 565.602 87.3495 559.193C90.3574 553.264 93.8077 547.41 97.5673 541.735C99.321 539.089 101.099 536.453 102.866 533.812C104.022 532.083 105.123 529.316 106.733 527.659C96.3261 537.174 84.956 546.757 78.3534 558.174" fill="#F2F2F2"/></g><g id="Top Leaves"><path id="Leaf_6" fill-rule="evenodd" clip-rule="evenodd" d="M1022.63 123.827C1019.65 113.876 1012.65 106.087 1005.37 98.9511C991.22 85.0582 983.606 76.4684 978.562 56.1457C975.595 44.1934 972.575 31.5277 963.165 22.8562C956.313 16.5414 944.521 11.2359 935.357 15.7577C921.261 24.1717 917.475 41.4386 918.896 56.9001C920.659 76.0635 929.61 87.8797 946.807 94.938C956.497 98.9133 962.938 104.159 968.197 113.299C972.405 120.607 974.858 129.759 980.145 136.384C988.05 146.289 997.941 150.691 1010.13 149.046C998.714 128.035 985.371 106.826 969.277 89.1352C967.771 87.3567 958.886 80.5492 960.678 77.5181C962.652 74.1807 971.774 86.7176 971.709 86.6418C976.386 92.0103 980.714 97.7152 984.963 103.475C984.953 103.48 984.94 103.484 984.928 103.489C989.304 109.4 993.644 115.397 997.902 121.469C999.624 124.038 1001.3 126.639 1002.9 129.306C1005.26 133.219 1009 144.325 1012.85 146.731C1013.67 147.245 1014.44 147.533 1015.15 147.651C1017.78 151.956 1020.33 156.295 1022.77 160.685C1029.12 172.151 1034.57 184.257 1037.08 197.202C1037.81 200.981 1037.29 215.114 1039.87 217.842C1044.58 222.831 1043.2 213.223 1042.92 210.323C1040.58 186.31 1031.96 165.852 1019.44 145.664C1023.29 140.642 1023.84 127.859 1022.63 123.827" fill="#F2F2F2"/><path id="Leaf_7" fill-rule="evenodd" clip-rule="evenodd" d="M861.131 135.43C866.102 129.573 878.052 128.579 885.361 128.971C894.404 129.456 903.694 131.658 912.298 134.32C926.471 138.704 940.244 146.706 952.727 154.451C954.231 155.384 972.764 166.529 971.124 168.485C969.498 170.423 951.305 157.184 947.25 154.902C938.597 150.032 930.662 144.272 921.124 141.055C911.249 137.724 900.805 136.405 890.42 136.496C889.087 136.508 884.74 135.579 884.646 137.551C884.554 139.479 891.748 138.473 893.016 138.485C898.255 138.533 903.527 139.026 908.691 139.934C918.368 141.635 927.465 145.061 935.753 150.317C933.44 155.694 927.897 158.173 922.081 156.828C917.055 155.664 912.156 152.796 907.234 151.966C903.845 151.395 900.451 151.735 897.164 152.69C888.494 155.209 883.494 160.371 873.961 156.781C866.489 153.966 853.991 143.853 861.131 135.43" fill="#F2F2F2"/><path id="Leaf Me Alone!_5" fill-rule="evenodd" clip-rule="evenodd" d="M839.753 41.0513C828.714 40.2462 816.388 49.0557 811.063 58.2232C806.771 65.6147 807.494 75.3207 810.145 83.1734C811.921 88.4307 815.795 95.9263 822.257 95.9994C830.341 96.0908 830.73 86.2066 830.887 80.4283C831.095 72.7462 832.076 66.054 838.195 60.8177C838.95 60.1715 839.743 59.5664 840.536 58.9614C841.239 58.4243 841.943 57.8873 842.62 57.3217C842.728 57.2313 842.837 57.1408 842.946 57.0501C845.11 55.251 847.383 53.3615 847.659 50.3961C848.06 46.0986 845.608 45.3252 841.864 46.1236C841.743 46.1493 841.415 46.2724 840.969 46.4397C839.057 47.1566 834.977 48.6865 835.749 46.8577C836.039 46.1686 837.101 45.6225 838.441 45.2134C841.907 44.8405 846.042 44.4078 847.231 44.6663C860.058 47.4502 865.052 65.0278 866.379 76.1957C866.529 77.4603 866.649 78.7292 866.753 80H869.105C868.94 77.0154 868.726 74.0357 868.221 71.0845C866.331 60.0223 860.42 43.7749 847.455 41.9794C846.977 41.9125 845.217 41.9012 843.086 42.0249C842.076 41.4665 840.945 41.1289 839.753 41.0513Z" fill="#F2F2F2"/></g></g></g><g id="Master/Pose/Standing" transform="matrix(-1 0 0 1 802 214) scale(1 1)"><g id="Master/Pose/Standing"><g id="Head/Front" transform="translate(82 0) scale(1 1)"><g id="Head/Front/Curly"><g id="Head"><path id="SKIN" fill-rule="evenodd" clip-rule="evenodd" d="M73.9354 75.2443C80.411 79.1475 86.7736 81.0333 89.7603 80.2635C97.2496 78.333 97.9382 50.9351 92.1433 40.1339C86.3485 29.3328 56.5583 24.625 55.0568 46.0255C54.5356 53.4529 57.6544 60.0814 62.2623 65.4901L54 104H78L73.9354 75.2443Z" fill="#57331f"/></g><path id="hair" fill-rule="evenodd" clip-rule="evenodd" d="M102.776 25.1604C102.279 23.4135 100.942 21.9178 99.1404 21.474C98.7035 21.3664 98.2524 21.3229 97.8028 21.341C97.6416 21.3475 97.5964 21.394 97.521 21.2812C97.4651 21.1976 97.4639 20.9934 97.4408 20.8951C97.3693 20.5896 97.2797 20.2879 97.1693 19.994C96.7923 18.9917 96.1589 18.1046 95.3952 17.3573C93.9669 15.9593 92.0369 14.9944 90.0318 14.8199C88.9344 14.7244 87.845 14.9027 86.8075 15.2597C86.2703 15.4445 85.7495 15.6746 85.2422 15.929C85.0895 16.0056 84.5939 16.3806 84.4407 16.3563C84.2714 16.3295 83.9311 15.9088 83.7935 15.8032C82.0921 14.4979 79.9911 13.9847 77.8719 14.0003C75.4799 14.018 73.1765 14.1375 71.1816 15.5957C70.7593 15.9044 70.3571 16.2425 69.9741 16.5983C69.7725 16.7857 69.5772 16.9801 69.3909 17.1825C69.2785 17.3047 69.169 17.4296 69.0637 17.5579C68.8849 17.7756 68.9136 17.8471 68.6633 17.6952C67.7032 17.1119 66.5907 16.8391 65.4701 16.9768C64.8046 17.0586 64.1572 17.2584 63.5425 17.5213C63.3332 17.6109 62.8487 17.9679 62.6256 17.9714C62.4043 17.9748 61.9266 17.6438 61.6987 17.5597C60.4675 17.1052 59.1404 16.9931 57.8462 17.2032C56.5113 17.4199 55.2 17.9525 54.0689 18.6885C53.5249 19.0425 53.0503 19.4348 52.6691 19.9612C52.5045 20.1885 52.3557 20.4289 52.1691 20.6396C52.0599 20.763 51.8436 20.8897 51.785 21.0458C51.8201 20.9523 50.3251 20.376 50.184 20.3391C49.4324 20.1428 48.6671 20.1826 47.9312 20.4248C46.5472 20.8803 45.3571 21.9016 44.3789 22.9487C43.8765 23.4866 43.4369 24.0811 43.0637 24.7145C42.8848 25.0179 42.7213 25.33 42.5717 25.6487C42.4991 25.8031 42.4511 25.9962 42.3556 26.1353C42.2324 26.3146 42.1497 26.318 41.9267 26.3961C40.794 26.7929 39.7616 27.4645 38.9753 28.3721C38.18 29.2902 37.664 30.4209 37.4476 31.6116C37.4349 31.6817 37.4273 31.9724 37.3862 32.0103C37.3299 32.0626 37.1022 32.0395 37.016 32.0496C36.7177 32.0846 36.4214 32.1367 36.1291 32.2059C35.5903 32.3335 35.0658 32.5211 34.5696 32.7666C32.6356 33.7235 31.2525 35.5175 30.5757 37.5361C29.8654 39.6546 29.878 42.0816 30.7269 44.1605C30.864 44.4963 31.0272 44.8222 31.2188 45.1305C31.3365 45.3198 31.3744 45.3203 31.298 45.5189C31.2129 45.7398 31.0573 45.9545 30.9562 46.1703C30.6262 46.8748 30.3956 47.6219 30.2499 48.3851C30.0108 49.6368 29.8924 50.9523 30.1282 52.2136C30.2377 52.7993 30.4284 53.3718 30.7195 53.8934C30.8679 54.1594 31.0415 54.4116 31.2376 54.645C31.3394 54.7661 31.4475 54.8818 31.5605 54.9927C31.6252 55.056 31.71 55.1114 31.765 55.1822C31.8992 55.3546 31.9274 55.2128 31.8582 55.4661C31.7614 55.8201 31.542 56.1694 31.4077 56.5139C31.2692 56.8689 31.1441 57.2288 31.0297 57.5923C30.7979 58.3282 30.6019 59.0774 30.4793 59.8395C30.244 61.3028 30.2853 62.8619 30.9775 64.2048C31.2734 64.7793 31.6979 65.2832 32.2128 65.6752C32.4649 65.8669 32.7378 66.0322 33.0242 66.168C33.1714 66.2378 33.3592 66.2678 33.4263 66.4101C33.4986 66.5631 33.3913 66.867 33.3669 67.038C33.1541 68.5263 33.0474 70.0889 33.4898 71.5473C33.8972 72.8907 34.7944 74.0767 35.9592 74.8619C38.2188 76.3852 41.2647 76.2993 43.6389 75.0798C44.2578 74.7619 44.8368 74.3672 45.3533 73.9017C46.6685 75.6722 49.375 75.6162 51.2972 75.1117C53.6921 74.4832 55.6137 72.818 56.7209 70.63C58.2348 72.473 61.412 71.875 62.4618 69.8757C62.7188 69.3864 62.8712 68.8471 62.9462 68.3014C62.9857 68.0144 62.9605 67.7249 62.9902 67.4402C63.028 67.0774 63.2703 66.7249 63.4096 66.374C63.6809 65.691 63.8493 64.9855 63.8566 64.2488C63.8604 63.8641 63.8116 63.4893 63.7751 63.1077C63.7422 62.7642 63.8374 62.4442 63.8915 62.1052C63.2773 62.2064 62.529 62.0407 61.9504 61.8626C61.3825 61.6879 60.8507 61.2276 60.4499 60.8072C59.5192 59.8311 58.9507 58.5515 58.5619 57.2779C57.7084 54.4826 58.0582 51.129 60.8698 49.5949C62.1795 48.8802 66.1034 48.8826 67.6633 49.2358C69.3036 49.6071 71.1631 53.2264 71.2546 53.5666C71.3112 53.7771 71.2827 54.0377 71.4761 54.178C71.9012 54.4864 72.6022 53.9511 72.9157 53.6869C73.4568 53.231 73.8427 52.6243 74.1769 52.0094C74.9052 50.6696 75.4923 49.2329 75.907 47.7663C76.2267 46.6355 76.4311 45.4695 76.849 44.3676C77.2649 43.2712 77.9204 42.2912 78.9396 41.67C80.0484 40.9943 81.3193 40.6385 82.5365 40.2138C83.743 39.793 84.9287 39.2787 85.8639 38.3857C86.0695 38.1894 86.2693 37.9807 86.4348 37.7495C86.5655 37.567 86.6946 37.2177 86.8937 37.102C87.2032 36.922 87.6549 37.3901 87.9226 37.56C89.243 38.3986 90.3446 39.5683 91.2331 40.846C92.1167 42.1167 92.8417 43.3395 93.4308 44.7584C93.8678 45.8108 94.1406 47.1586 94.9092 48.0211C95.2523 48.4062 97.8028 48.6392 98.629 48.303C99.4551 47.9667 100.381 47.0937 100.658 46.5466C100.942 45.9866 101.01 45.3715 100.889 44.7584C100.817 44.3978 100.672 44.0609 100.592 43.7066C100.525 43.4091 100.464 43.1278 100.319 42.8552C100.045 42.3386 99.5756 41.9673 99.0101 41.8121C99.5986 41.2694 100.086 40.6203 100.424 39.8946C100.774 39.1407 101.072 38.2238 101.156 37.3964C101.224 36.7243 101.119 36.028 100.751 35.4504C100.365 34.8445 99.681 34.4492 99.0894 34.0713C99.9931 33.3642 100.767 32.5044 101.402 31.5524C102.639 29.7011 103.404 27.3675 102.776 25.1604Z" fill="#2c1b18"/></g></g><g id="Lower Body/Standing" transform="translate(0 187) scale(1 1)"><g id="Lower Body/Standing/Baggy Pants"><path id="SKIN" fill-rule="evenodd" clip-rule="evenodd" d="M134 0L183.082 124.227L216.001 229.25H229L176.674 0L134 0Z" fill="#57331f"/><path id="SKIN" fill-rule="evenodd" clip-rule="evenodd" d="M124.117 0C123.594 43.6542 115.972 102.427 114.754 105.149C113.536 107.87 30.6758 174.358 30.6758 174.358L39.629 183.939C39.629 183.939 137.397 126.934 141.921 119.331C146.445 111.728 161.174 41.7631 173 0H124.117Z" fill="#57331f"/><g id="Left [Shoe]"><path id="shoe" fill-rule="evenodd" clip-rule="evenodd" d="M32.116 172.564C31.7884 171.44 30.604 170.771 29.5042 171.173C27.4981 171.906 24.5641 173.092 23.2642 174.183C21.1921 175.922 17.7961 179.948 17.7961 179.948C19.8131 182.352 54.0505 223.154 54.0505 223.154C54.0505 223.154 61.0315 220.166 58.4307 216.165C55.8299 212.164 54.1738 209.464 54.1738 209.464L46.2757 181.87C46.1206 181.328 45.549 181.022 45.012 181.192L40.7975 182.529C40.7975 182.529 36.4116 180.485 34.6494 178.384C33.5766 177.106 32.665 174.448 32.116 172.564Z" fill="#E4E4E4"/></g><g id="Right {Shoe]"><path id="shoe_2" fill-rule="evenodd" clip-rule="evenodd" d="M213.45 223.284C212.378 222.813 211.104 223.29 210.705 224.391C209.977 226.398 209 229.409 209 231.106C209 233.811 209.901 239 209.901 239C213.039 239 266.303 239 266.303 239C266.303 239 268.502 231.732 263.765 231.152C259.028 230.573 255.895 230.106 255.895 230.106L229.68 218.419C229.165 218.189 228.563 218.43 228.348 218.951L226.663 223.039C226.663 223.039 222.278 225.085 219.537 225.085C217.868 225.085 215.246 224.074 213.45 223.284Z" fill="#E4E4E4"/></g><path id="Pant" fill-rule="evenodd" clip-rule="evenodd" d="M167 218.433L228.804 211.725L179 0H127.644L167 218.433Z" fill="#191847"/><path id="Pant" fill-rule="evenodd" clip-rule="evenodd" d="M43.46 158.9L84 206.886C84 206.886 148.05 136.932 158.683 115.596C169.315 94.26 177.799 0 177.799 0H115.478C115.478 0 110.844 82.9258 109.231 86.7848C107.617 90.6437 43.46 158.9 43.46 158.9Z" fill="#393f82"/></g></g><g id="Upper Body" transform="translate(22 82) scale(1 1)"><g id="Upper Body/Pointing Forward"><path id="SKIN" fill-rule="evenodd" clip-rule="evenodd" d="M193.348 23.6899L158.638 42.7003L171.456 56.4577L196.677 33.3653C209.963 29.7037 216.039 27.0251 214.904 25.3294C213.948 23.8997 212.405 23.9494 210.985 23.9951C209.878 24.0307 208.845 24.064 208.22 23.3937C206.794 21.8628 209.515 16.5104 212.315 11.5416C215.114 6.57269 212.121 7.00525 210.409 7.7199C204.807 11.5123 199.12 16.8356 193.348 23.6899ZM228.246 50.3643L213 58.7399L213.868 74.0403C213.868 74.0403 223.743 66.9131 232.238 64.5444C243.07 61.5241 247.453 59.2177 252.746 52.4731C255.578 48.8645 257.982 41.6102 255.286 39.2477C254.252 38.3414 250.399 40.4824 246.468 42.667C243.472 44.3319 240.43 46.022 238.556 46.4078C236.034 46.9272 236.329 43.6574 236.565 41.0446C236.734 39.1697 236.873 37.633 235.918 38.0773C231.455 38.1538 228.246 50.3643 228.246 50.3643Z" fill="#3d2216"/><g id="Group 3"><path id="Mask" fill-rule="evenodd" clip-rule="evenodd" d="M141.734 38.4654C153.892 38.337 170.104 35.7692 187.403 24.7888L194.196 39.9387C182.264 51.7804 165.486 61.5097 150.816 61.0977C139.255 60.7731 133.347 46.7892 141.734 38.4654Z" fill="#c5cfd6"/><mask id="mask0_215_4854178b7830-e850-4c50-90e5-3467f79750f2" style="mask-type:alpha" maskUnits="userSpaceOnUse" x="137" y="24" width="58" height="38" fill="#ffffff"><path id="Mask" fill-rule="evenodd" clip-rule="evenodd" d="M141.734 38.4654C153.892 38.337 170.104 35.7692 187.403 24.7888L194.196 39.9387C182.264 51.7804 165.486 61.5097 150.816 61.0977C139.255 60.7731 133.347 46.7892 141.734 38.4654Z" fill="#ffffff"/></mask><g mask="url(#mask0_215_4854178b7830-e850-4c50-90e5-3467f79750f2)"/></g><g id="Group 27"><path id="Mask" fill-rule="evenodd" clip-rule="evenodd" d="M108.945 142.259C97.3866 140.752 86.7664 139.367 80.4728 140.606C73.4113 117.673 79.2749 103.234 84.6879 89.9046C87.9502 81.871 91.0489 74.2405 91.0555 65.3966C91.0748 39.6422 111.754 0 114.797 0H115.67H139.783H142.544C143.784 15.9374 149.079 33.193 154.407 50.5596C155.652 54.6153 156.898 58.6769 158.095 62.7293C178.26 67.3065 223.036 51.3734 223.036 51.3734C223.036 51.3734 234.34 74.7586 233.487 84.7171C207.424 98.331 185.087 104.401 166.683 104.802C167.268 115.721 165.939 126.112 161.474 135.606C155.491 148.327 130.576 145.079 108.945 142.259Z" fill="#f2f2f2"/><mask id="mask1_215_4854178b7830-e850-4c50-90e5-3467f79750f2" style="mask-type:alpha" maskUnits="userSpaceOnUse" x="77" y="0" width="157" height="145" fill="#ffffff"><path id="Mask_2" fill-rule="evenodd" clip-rule="evenodd" d="M108.945 142.259C97.3866 140.752 86.7664 139.367 80.4728 140.606C73.4113 117.673 79.2749 103.234 84.6879 89.9046C87.9502 81.871 91.0489 74.2405 91.0555 65.3966C91.0748 39.6422 111.754 0 114.797 0H115.67H139.783H142.544C143.784 15.9374 149.079 33.193 154.407 50.5596C155.652 54.6153 156.898 58.6769 158.095 62.7293C178.26 67.3065 223.036 51.3734 223.036 51.3734C223.036 51.3734 234.34 74.7586 233.487 84.7171C207.424 98.331 185.087 104.401 166.683 104.802C167.268 115.721 165.939 126.112 161.474 135.606C155.491 148.327 130.576 145.079 108.945 142.259Z" fill="#ffffff"/></mask><g mask="url(#mask1_215_4854178b7830-e850-4c50-90e5-3467f79750f2)"/></g></g></g></g></g><g id="Master/Pose/Standing" transform="translate(246 214) scale(1 1)"><g id="Master/Pose/Standing"><g id="Head/Front" transform="translate(82 0) scale(1 1)"><g id="Head/Front/Wavy"><g id="Head"><path id="SKIN" fill-rule="evenodd" clip-rule="evenodd" d="M92.1433 40.1339C97.9382 50.9351 97.2496 78.333 89.7603 80.2635C86.7737 81.0333 80.4113 79.1476 73.9359 75.2446L78 104H54L62.2616 65.4893C57.6541 60.0807 54.5357 53.4525 55.0568 46.0255C56.5583 24.625 86.3485 29.3328 92.1433 40.1339Z" fill="#b28b67"/></g><path id="hair" fill-rule="evenodd" clip-rule="evenodd" d="M94.4091 44.9836C94.1714 43.5836 93.5904 42.0288 93.1216 40.7043C92.5172 38.9967 91.6025 37.4571 90.5959 36.0061C88.7009 33.2744 86.4276 30.8075 83.9176 28.7601C79.3328 25.0202 73.4966 22.8631 67.7574 23.5636C64.8597 23.9173 62.0468 25.0226 59.6525 26.8624C57.4894 28.5246 55.4087 30.9716 52.6077 31.1474C49.56 31.3385 46.7662 28.6485 44.322 26.9871C41.566 25.1141 38.6342 23.7493 35.4132 23.2188C30.0173 22.3304 24.9482 24.1534 21.2294 28.5805C17.2722 33.2916 14.3955 40.2003 16.9943 46.4425C17.4773 47.6028 18.0988 48.581 18.9907 49.3918C19.8086 50.1353 21.0579 50.9263 21.3895 52.1142C21.7418 53.3769 20.6895 55.006 20.2815 56.1454C19.6969 57.7778 19.2169 59.4913 19.3876 61.2656C19.6679 64.1795 21.4991 66.9612 23.4327 68.8765C25.4004 70.8254 27.8222 71.943 30.4089 72.4582C32.1361 72.8022 33.9013 72.992 35.6567 72.8628C36.5281 72.7988 37.2971 72.5567 38.1414 72.3642C38.9625 72.1769 39.4213 72.395 40.1179 72.8453C43.354 74.9373 46.8335 75.7467 50.5701 75.4356C53.7237 75.1729 57.3584 74.4087 59.931 72.248C62.788 69.8482 62.7311 66.5391 62.0588 63.0035C62.7711 63.3565 64.7416 63.5751 63.5641 62.1681C63.0976 61.6108 62.2163 61.384 61.6178 61.0563C60.9209 60.6747 60.2132 60.1814 59.6721 59.5589C57.4869 57.0454 59.6939 51.93 62.4404 51.0871C66.5209 49.8347 67.4345 55.6055 70.3474 57.0982C72.0222 57.9565 73.7742 56.7834 75.029 55.5855C76.7099 53.9809 77.8554 51.8551 78.8445 49.6918C79.6592 47.9103 80.4173 46.1038 81.2477 44.3311C81.6354 43.5033 82.9778 41.1632 82.3037 40.2272C85.2264 39.6444 88.4816 40.859 90.9987 42.4517C92.0391 43.1101 92.8322 43.8361 93.3872 44.9985C93.5061 45.2475 93.7649 45.9879 94.0899 46.0183C94.6949 46.0748 94.4688 45.3354 94.4091 44.9836" fill="#2c1b18"/></g></g><g id="Lower Body/Standing" transform="translate(0 187) scale(1 1)"><g id="Lower Body/Standing/Sweatpants"><path id="SKIN" fill-rule="evenodd" clip-rule="evenodd" d="M128 0L164.631 126.227L181.86 221H199.153L181.891 0L128 0Z" fill="#b28b67"/><path id="Shadow" fill-rule="evenodd" clip-rule="evenodd" d="M128 0L164.631 126.227L181.86 221H199.153L181.891 0L128 0Z" fill="black" fill-opacity="0.1"/><path id="SKIN" fill-rule="evenodd" clip-rule="evenodd" d="M111.538 0C114.094 65.5742 113.086 101.34 112.514 107.298C111.942 113.256 108.694 153.156 86.5637 223H104.55C133.858 155.997 144.089 116.096 147.45 107.298C150.812 98.4996 160.739 62.7336 175.233 0H111.538Z" fill="#b28b67"/><path id="Pant" fill-rule="evenodd" clip-rule="evenodd" d="M127.214 0C136.742 43.435 153.222 112.768 176.653 208H201.946C203.814 110.254 195.867 45.9205 182.105 0L127.214 0Z" fill="#56919c"/><path id="Pant" fill-rule="evenodd" clip-rule="evenodd" d="M111.41 0C113.913 65.5742 107.426 130.177 87.3306 209.021H114.317C143.679 143.018 164.723 78.7336 179.106 0H111.41Z" fill="#89c5cc"/><g id="Left [shoe]"><path id="Shoe" fill-rule="evenodd" clip-rule="evenodd" d="M84 236L84.9149 221.249C84.9546 220.609 85.5774 220.171 86.2047 220.304C94.8719 222.146 106.826 218 106.826 218C118.857 226.522 136.201 230.433 142.308 231.604C143.49 231.831 144.248 233.023 143.92 234.18L142.553 239H106.826H85.9848L84 236Z" fill="#191847"/></g><g id="Right [shoe]"><path id="Shoe_2" fill-rule="evenodd" clip-rule="evenodd" d="M178 236L178.915 221.249C178.955 220.609 179.577 220.171 180.205 220.304C188.872 222.146 200.826 218 200.826 218C212.857 226.522 230.201 230.433 236.308 231.604C237.49 231.831 238.248 233.023 237.92 234.18L236.553 239H200.826H179.985L178 236Z" fill="#191847"/></g></g></g><g id="Upper Body" transform="translate(22 82) scale(1 1)"><g id="Upper Body/Hoodie"><path id="SKIN" fill-rule="evenodd" clip-rule="evenodd" d="M222.68 115.635L190.781 92.2115L183.73 109.642L215.318 122.741C224.251 133.235 229.246 137.61 230.304 135.865C231.195 134.394 230.499 133.017 229.857 131.749C229.357 130.76 228.89 129.838 229.233 128.989C230.018 127.049 236.019 127.254 241.705 127.691C247.392 128.128 245.735 125.598 244.364 124.349C238.559 120.874 231.331 117.97 222.68 115.635ZM55.398 156.908C58.3285 150.963 68.308 93.0199 68.308 93.0199L89.2054 93.1021C89.2054 93.1021 69.8506 155.583 68.308 159.406C66.3041 164.372 69.708 171.587 72.0162 176.48C72.3733 177.237 72.7041 177.938 72.9847 178.567C69.782 180 68.2435 178.268 66.6216 176.442C64.7896 174.379 62.8512 172.197 58.288 174.319C56.525 175.14 54.8568 176.109 53.2269 177.057C47.5969 180.329 42.4249 183.336 35.3891 178.994C34.2737 178.306 33.0514 175.715 36.0047 173.69C43.3624 168.645 53.9654 159.815 55.398 156.908Z" fill="#b28b67"/><path id="Coat Back" fill-rule="evenodd" clip-rule="evenodd" d="M127.695 5.33203L136.342 3.84886C168.425 31.5643 181.603 84.8089 220.929 113.015L211.464 124.748C143.24 116.3 126.33 51.3548 127.695 5.33203Z" fill="#c21b15"/><path id="Shirt" fill-rule="evenodd" clip-rule="evenodd" d="M90 114C90 114 142.008 114 166.511 114C170.008 114 169.349 108.952 168.843 106.404C163.011 77.0038 140.241 45.3115 140.241 3.46073L118.172 0C99.9175 29.3584 93.6048 65.5046 90 114Z" fill="#C7D1D9"/><path id="Coat Front" fill-rule="evenodd" clip-rule="evenodd" d="M81.3968 135C77.9582 143.259 74.5862 150.465 71.4089 156H54.9999C53.2345 98.9186 74.8454 54.9964 92.9315 28.5129C88.9158 28.2259 85.2911 26.5455 82.9999 22.4112C74.9335 7.85608 77.8467 -0.157593 86.4671 -2.79173C91.2074 -4.24021 95.6656 -3.25154 101.002 -2.06804C105.369 -1.09961 110.325 -0.000719281 116.504 2.76336e-08C116.506 2.76336e-08 116.508 2.76336e-08 116.51 2.76336e-08C117.109 2.76336e-08 117.654 0.0401216 118.148 0.116866L125.472 0.53474C125.472 0.53474 155.205 101.305 141.872 135H81.3968Z" fill="#ff4133"/><path id="Shade" fill-rule="evenodd" clip-rule="evenodd" d="M81.397 135C85.9087 124.164 90.5352 111.516 94.9874 98.4544C96.6448 112.839 99.4048 127.286 104 135H81.397Z" fill="black" fill-opacity="0.1"/></g></g></g></g></g></svg>